<?xml version="1.0" encoding="UTF-8" standalone="no"?>
<!-- Generator: Adobe Illustrator 16.0.0, SVG Export Plug-In . SVG Version: 6.00 Build 0)  -->

<svg
   xmlns:dc="http://purl.org/dc/elements/1.1/"
   xmlns:cc="http://creativecommons.org/ns#"
   xmlns:rdf="http://www.w3.org/1999/02/22-rdf-syntax-ns#"
   xmlns:svg="http://www.w3.org/2000/svg"
   xmlns="http://www.w3.org/2000/svg"
   xmlns:sodipodi="http://sodipodi.sourceforge.net/DTD/sodipodi-0.dtd"
   xmlns:inkscape="http://www.inkscape.org/namespaces/inkscape"
   version="1.1"
   id="Capa_1"
   x="0px"
   y="0px"
   width="612.017px"
   height="612.017px"
   viewBox="0 0 612.017 612.017"
   style="enable-background:new 0 0 612.017 612.017;"
   xml:space="preserve"
   inkscape:version="0.91 r13725"
   sodipodi:docname="logo v2.svg"><metadata
     id="metadata44"><rdf:RDF><cc:Work
         rdf:about=""><dc:format>image/svg+xml</dc:format><dc:type
           rdf:resource="http://purl.org/dc/dcmitype/StillImage" /><dc:title></dc:title></cc:Work></rdf:RDF></metadata><defs
     id="defs42" /><sodipodi:namedview
     pagecolor="#ffffff"
     bordercolor="#666666"
     borderopacity="1"
     objecttolerance="10"
     gridtolerance="10"
     guidetolerance="10"
     inkscape:pageopacity="0"
     inkscape:pageshadow="2"
     inkscape:window-width="1366"
     inkscape:window-height="690"
     id="namedview40"
     showgrid="false"
     inkscape:zoom="0.19280509"
     inkscape:cx="449.65569"
     inkscape:cy="130.60032"
     inkscape:window-x="0"
     inkscape:window-y="23"
     inkscape:window-maximized="1"
     inkscape:current-layer="g6" /><g
     id="g3"><g
       id="Saturn"><g
         id="g6"
         transform="translate(140.03779,-41.49268)"><g
           id="g4348"
           transform="matrix(1.1351349,0,0,1.1351349,-20.95662,-45.487742)"><path
             id="rect4312-3"
             transform="translate(-140.03779,41.49268)"
             d="m 302.44336,64.832031 a 238.90708,239.87956 0 0 0 -1.20508,0.06055 l -3.45312,0 0,0.173828 A 238.90708,239.87956 0 0 0 63.535156,304.71094 238.90708,239.87956 0 0 0 297.78516,544.42578 l 0,0.0137 0.37695,0 a 238.90708,239.87956 0 0 0 4.28125,0.15235 238.90708,239.87956 0 0 0 3.0293,-0.15235 l 240.41601,0 0,-479.546872 -241.74414,0 a 238.90708,239.87956 0 0 0 -1.70117,-0.06055 z"
             style="opacity:1;fill:#0171cd;fill-opacity:1;fill-rule:nonzero;stroke:none;stroke-width:12.40157509;stroke-miterlimit:4;stroke-dasharray:none;stroke-opacity:1"
             inkscape:connector-curvature="0" /><path
             inkscape:connector-curvature="0"
             id="path4192"
             d="m 164.55683,155.29372 c -81.222,0.63225 -158.0373165,59.76271 -179.307174,138.188 -20.225004,68.74302 1.338206,148.49813 55.428866,196.01189 48.478908,44.29202 120.941888,62.58139 183.798128,41.48746 27.4833,-8.65963 52.89577,-23.53896 74.34385,-42.73422 0,17.0651 0,34.13021 0,51.19531 19.7832,0 39.56641,0 59.34961,0 -0.68689,-127.60269 -1.27388,-255.2059 -1.96094,-382.80859 -18.33398,0 -36.66797,0 -55.00195,0 -0.7661,16.8077 -0.97388,33.63292 -1.40039,50.45117 -34.20439,-31.00506 -79.06514,-51.2168 -125.60898,-51.71755 -3.21248,-0.10073 -6.42737,-0.11599 -9.64102,-0.0735 z m 7.53711,59.16211 c 55.98813,0.22479 110.04947,40.409 124.656,94.73085 3.33695,23.36057 2.07805,47.56523 1.0647,71.28868 -5.10738,29.14293 -24.89863,53.65475 -47.32422,71.97071 -37.72306,29.34246 -91.70015,37.16524 -135.31641,16.42578 -50.0191,-22.8627 -85.130932,-78.26359 -79.053672,-133.48983 3.217022,-35.71046 22.089231,-69.05835 50.136852,-91.36701 23.16026,-20.2126 54.11725,-30.5922 84.54362,-29.54326 0.43115,0.0127 0.86205,-0.0165 1.29313,-0.0159 z"
             style="fill:#ffffff;fill-opacity:1" /></g></g></g></g><g
     id="g10" /><g
     id="g12" /><g
     id="g14" /><g
     id="g16" /><g
     id="g18" /><g
     id="g20" /><g
     id="g22" /><g
     id="g24" /><g
     id="g26" /><g
     id="g28" /><g
     id="g30" /><g
     id="g32" /><g
     id="g34" /><g
     id="g36" /><g
     id="g38" /></svg>